<?xml version="1.0" encoding="UTF-8"?>
<!DOCTYPE svg PUBLIC "-//W3C//DTD SVG 1.1//EN" "http://www.w3.org/Graphics/SVG/1.1/DTD/svg11.dtd">
<svg xmlns="http://www.w3.org/2000/svg" version="1.1" width="512px" height="512px" style="shape-rendering:geometricPrecision; text-rendering:geometricPrecision; image-rendering:optimizeQuality; fill-rule:evenodd; clip-rule:evenodd" xmlns:xlink="http://www.w3.org/1999/xlink">
<g><path style="opacity:0.939" fill="blue" d="M 249.5,-0.5 C 253.167,-0.5 256.833,-0.5 260.5,-0.5C 265.649,1.82738 268.816,5.82738 270,11.5C 270.667,27.5 270.667,43.5 270,59.5C 266.407,71.2117 258.907,74.7117 247.5,70C 243.675,67.5119 241.508,64.0119 241,59.5C 240.333,43.5 240.333,27.5 241,11.5C 242.107,6.23408 244.94,2.23408 249.5,-0.5 Z"/></g>
<g><path style="opacity:0.947" fill="blue" d="M 124.5,27.5 C 130.346,27.1641 135.18,29.1641 139,33.5C 147.333,47.5 155.667,61.5 164,75.5C 166.352,90.1469 160.186,96.6469 145.5,95C 142.438,93.9392 139.938,92.1059 138,89.5C 129.269,75.7613 120.935,61.7613 113,47.5C 110.956,37.235 114.79,30.5683 124.5,27.5 Z"/></g>
<g><path style="opacity:0.946" fill="blue" d="M 382.5,27.5 C 394.952,28.4577 400.119,35.1244 398,47.5C 390.065,61.7613 381.731,75.7613 373,89.5C 365.315,97.1311 357.315,97.4644 349,90.5C 346.599,85.7683 345.932,80.7683 347,75.5C 355.415,61.0005 364.082,46.6671 373,32.5C 375.907,30.1317 379.074,28.465 382.5,27.5 Z"/></g>
<g><path style="opacity:0.945" fill="blue" d="M 21.5,114.5 C 25.6049,114.234 29.6049,114.734 33.5,116C 47.5,123.667 61.5,131.333 75.5,139C 82.7333,144.967 84.2333,152.133 80,160.5C 75.5913,165.525 70.0913,167.358 63.5,166C 48.3413,158.255 33.3413,150.255 18.5,142C 11.1361,136.054 9.63612,128.888 14,120.5C 16.1141,117.879 18.6141,115.879 21.5,114.5 Z"/></g>
<g><path style="opacity:0.945" fill="blue" d="M 480.5,114.5 C 496.757,114.578 502.257,122.245 497,137.5C 495.5,139 494,140.5 492.5,142C 477.659,150.255 462.659,158.255 447.5,166C 432.156,166.651 426.323,159.485 430,144.5C 431.833,142.667 433.667,140.833 435.5,139C 450.594,130.791 465.594,122.624 480.5,114.5 Z"/></g>
<g><path style="opacity:0.963" fill="blue" d="M 511.5,491.5 C 511.5,495.167 511.5,498.833 511.5,502.5C 509.5,506.5 506.5,509.5 502.5,511.5C 337.833,511.5 173.167,511.5 8.5,511.5C 4.5,509.5 1.5,506.5 -0.5,502.5C -0.5,498.833 -0.5,495.167 -0.5,491.5C 8.61368,469.256 17.7804,446.922 27,424.5C 29.1005,421.533 31.9338,419.7 35.5,419C 46.495,418.5 57.495,418.333 68.5,418.5C 78.5251,343.49 88.6918,268.49 99,193.5C 108.303,153.864 133.136,131.364 173.5,126C 227.833,125.333 282.167,125.333 336.5,126C 377.399,130.899 402.566,153.399 412,193.5C 422.308,268.49 432.475,343.49 442.5,418.5C 453.505,418.333 464.505,418.5 475.5,419C 479.066,419.7 481.9,421.533 484,424.5C 493.22,446.922 502.386,469.256 511.5,491.5 Z M 170.5,155.5 C 227.168,155.333 283.834,155.5 340.5,156C 363.756,161.59 377.923,176.09 383,199.5C 392.893,272.42 403.06,345.253 413.5,418C 308.501,418.5 203.501,418.667 98.5,418.5C 108.058,343.758 118.225,269.091 129,194.5C 135.625,173.705 149.459,160.705 170.5,155.5 Z M 48.5,448.5 C 186.502,448.167 324.502,448.5 462.5,449.5C 466.544,460.47 470.878,471.303 475.5,482C 328.833,482.667 182.167,482.667 35.5,482C 40.3289,471.011 44.6623,459.844 48.5,448.5 Z"/></g>
<g><path style="opacity:0.957" fill="blue" d="M 233.5,205.5 C 248.167,205.5 262.833,205.5 277.5,205.5C 277.667,216.838 277.5,228.172 277,239.5C 274.612,267.489 272.445,295.489 270.5,323.5C 260.5,323.5 250.5,323.5 240.5,323.5C 238.444,295.497 236.278,267.497 234,239.5C 233.5,228.172 233.333,216.838 233.5,205.5 Z"/></g>
<g><path style="opacity:0.946" fill="blue" d="M 251.5,338.5 C 266.614,338.284 275.28,345.617 277.5,360.5C 274.84,377.168 265.174,384.002 248.5,381C 234.351,373.889 230.518,363.056 237,348.5C 240.664,343.314 245.498,339.981 251.5,338.5 Z"/></g>
</svg>
