<?xml version="1.0" encoding="UTF-8"?>
<!DOCTYPE svg PUBLIC "-//W3C//DTD SVG 1.1//EN" "http://www.w3.org/Graphics/SVG/1.1/DTD/svg11.dtd">
<svg xmlns="http://www.w3.org/2000/svg" version="1.1" width="512px" height="512px" style="shape-rendering:geometricPrecision; text-rendering:geometricPrecision; image-rendering:optimizeQuality; fill-rule:evenodd; clip-rule:evenodd" xmlns:xlink="http://www.w3.org/1999/xlink">
<g><path style="opacity:0.932" fill="blue" d="M 199.5,22.5 C 204.547,23.0069 209.547,23.8403 214.5,25C 224.733,28.783 234.733,33.1163 244.5,38C 251.845,41.2413 259.178,41.2413 266.5,38C 277.605,32.7808 288.938,28.1141 300.5,24C 315.809,20.904 327.976,25.7373 337,38.5C 342.333,47.8333 347.667,57.1667 353,66.5C 357.343,73.2627 363.51,77.4294 371.5,79C 383.743,81.1142 395.743,84.1142 407.5,88C 421.041,94.7387 427.375,105.739 426.5,121C 424.855,134.134 424.021,147.301 424,160.5C 425.122,164.951 427.122,168.951 430,172.5C 438.749,181.244 446.749,190.578 454,200.5C 461.373,212.998 461.04,225.331 453,237.5C 446.471,245.875 439.471,253.875 432,261.5C 426.097,267.641 423.264,274.974 423.5,283.5C 424.5,294.165 425.5,304.832 426.5,315.5C 427.125,329.586 421.459,340.253 409.5,347.5C 423.467,371.963 437.634,396.296 452,420.5C 455.607,428.085 453.44,433.085 445.5,435.5C 423.564,429.798 401.73,423.798 380,417.5C 373.523,439.732 367.19,462.065 361,484.5C 355.643,488.787 350.643,488.453 346,483.5C 332.626,459.918 319.126,436.418 305.5,413C 292.65,409.744 280.317,405.077 268.5,399C 260.96,394.954 253.294,394.621 245.5,398C 233.03,404.403 220.03,409.403 206.5,413C 192.288,436.588 178.455,460.421 165,484.5C 161.662,487.318 157.829,488.151 153.5,487C 151.951,485.786 150.785,484.286 150,482.5C 144.153,460.778 138.153,439.111 132,417.5C 110.039,423.657 88.039,429.657 66,435.5C 58.5275,433.42 56.1942,428.753 59,421.5C 73.2998,397.066 87.4665,372.566 101.5,348C 89.8887,339.945 84.2221,328.779 84.5,314.5C 86.9019,300.944 87.7353,287.277 87,273.5C 85.5869,270.339 83.9203,267.339 82,264.5C 73.9617,256.13 66.295,247.464 59,238.5C 50.379,224.848 50.379,211.182 59,197.5C 64.5939,189.902 70.9272,182.902 78,176.5C 87.1364,166.931 90.1364,155.597 87,142.5C 84.3842,130.112 84.3842,117.779 87,105.5C 92.0913,94.5246 100.591,87.6913 112.5,85C 121.777,82.7445 131.111,80.7445 140.5,79C 150.424,76.0784 157.591,69.9117 162,60.5C 167.404,48.1853 174.904,37.352 184.5,28C 189.299,25.2375 194.299,23.4042 199.5,22.5 Z M 197.5,40.5 C 200.518,40.3354 203.518,40.502 206.5,41C 216.948,45.0574 227.282,49.3908 237.5,54C 249.5,58.6667 261.5,58.6667 273.5,54C 283.718,49.3908 294.052,45.0574 304.5,41C 309.694,39.7581 314.36,40.7581 318.5,44C 326.293,55.08 333.459,66.58 340,78.5C 345.891,86.7175 353.724,92.2175 363.5,95C 375.967,97.4931 388.301,100.493 400.5,104C 407.317,107.8 410.317,113.633 409.5,121.5C 408.335,132.154 407.335,142.82 406.5,153.5C 406.009,163.859 408.842,173.192 415,181.5C 424.795,190.955 433.462,201.289 441,212.5C 443.093,217.816 442.426,222.816 439,227.5C 430.667,237.167 422.333,246.833 414,256.5C 408.668,264.501 406.168,273.334 406.5,283C 407.28,293.686 408.28,304.352 409.5,315C 410.267,323.431 406.933,329.431 399.5,333C 387.296,336.508 374.962,339.508 362.5,342C 352.383,344.786 344.549,350.62 339,359.5C 333.586,369.331 327.919,378.998 322,388.5C 317.105,395.706 310.605,397.873 302.5,395C 293.003,391.39 283.669,387.39 274.5,383C 268.352,380.713 262.018,379.213 255.5,378.5C 248.982,379.213 242.648,380.713 236.5,383C 225.247,388.629 213.58,393.129 201.5,396.5C 194.054,394.228 188.554,389.561 185,382.5C 179.268,369.527 171.435,358.027 161.5,348C 157.286,345.726 152.953,343.726 148.5,342C 136.097,339.253 123.764,336.253 111.5,333C 103.958,329.274 100.625,323.107 101.5,314.5C 102.757,304.024 103.757,293.524 104.5,283C 104.832,273.334 102.332,264.501 97,256.5C 90.3333,249.167 83.6667,241.833 77,234.5C 73.5011,230.328 70.8344,225.662 69,220.5C 68.4024,216.947 69.0691,213.614 71,210.5C 78.5855,200.243 86.9189,190.577 96,181.5C 102.158,173.192 104.991,163.859 104.5,153.5C 103.665,142.82 102.665,132.154 101.5,121.5C 100.688,112.618 104.355,106.451 112.5,103C 124.09,100.013 135.757,97.3459 147.5,95C 158.515,91.7475 167.015,85.2475 173,75.5C 178,66.8333 183,58.1667 188,49.5C 190.406,45.5915 193.572,42.5915 197.5,40.5 Z M 254.5,109.5 C 300.904,112.103 334.404,134.103 355,175.5C 370.818,217.589 364.485,255.922 336,290.5C 299.526,326.776 257.359,335.276 209.5,316C 163.362,290.896 143.195,252.063 149,199.5C 156.821,161.018 178.655,133.851 214.5,118C 227.555,113.157 240.888,110.324 254.5,109.5 Z M 118.5,352.5 C 126.475,354.263 134.475,356.096 142.5,358C 149.046,360.018 154.213,363.852 158,369.5C 164.126,382.263 171.626,394.096 180.5,405C 182.833,406.667 185.167,408.333 187.5,410C 178.54,425.419 169.707,440.919 161,456.5C 155.546,439.024 150.546,421.357 146,403.5C 144.163,400.578 141.496,398.911 138,398.5C 120.182,403.413 102.349,407.913 84.5,412C 95.9716,392.221 107.305,372.387 118.5,352.5 Z M 387.5,353.5 C 390.044,353.104 392.211,353.771 394,355.5C 404.707,374.415 415.54,393.248 426.5,412C 408.566,408.225 390.733,403.725 373,398.5C 370.755,399.137 368.588,399.97 366.5,401C 360.919,419.494 355.419,437.994 350,456.5C 341.419,441.003 332.586,425.67 323.5,410.5C 328.812,407.022 333.312,402.688 337,397.5C 343.541,385.58 350.707,374.08 358.5,363C 362.804,360.229 367.471,358.229 372.5,357C 377.702,356.131 382.702,354.964 387.5,353.5 Z"/></g>
<g><path style="opacity:0.93" fill="blue" d="M 239.5,93.5 C 292.698,89.352 333.865,109.352 363,153.5C 383.638,191.044 385.971,229.711 370,269.5C 344.21,320.321 302.71,344.821 245.5,343C 189.597,336.13 152.764,305.964 135,252.5C 122.834,202.344 135.334,159.51 172.5,124C 192.087,107.751 214.42,97.5843 239.5,93.5 Z M 254.5,109.5 C 240.888,110.324 227.555,113.157 214.5,118C 178.655,133.851 156.821,161.018 149,199.5C 143.195,252.063 163.362,290.896 209.5,316C 257.359,335.276 299.526,326.776 336,290.5C 364.485,255.922 370.818,217.589 355,175.5C 334.404,134.103 300.904,112.103 254.5,109.5 Z"/></g>
<g><path style="opacity:0.924" fill="blue" d="M 321.5,166.5 C 331.194,165.902 334.694,170.235 332,179.5C 302.833,210 273,239.833 242.5,269C 239.5,269.667 236.5,269.667 233.5,269C 215.333,250.833 197.167,232.667 179,214.5C 176.137,204.359 179.97,200.192 190.5,202C 206.333,217.833 222.167,233.667 238,249.5C 265.728,221.605 293.562,193.938 321.5,166.5 Z"/></g>
</svg>
