<?xml version="1.0" encoding="UTF-8"?>
<!DOCTYPE svg PUBLIC "-//W3C//DTD SVG 1.1//EN" "http://www.w3.org/Graphics/SVG/1.1/DTD/svg11.dtd">
<svg xmlns="http://www.w3.org/2000/svg" version="1.1" width="512px" height="512px" style="shape-rendering:geometricPrecision; text-rendering:geometricPrecision; image-rendering:optimizeQuality; fill-rule:evenodd; clip-rule:evenodd" xmlns:xlink="http://www.w3.org/1999/xlink">
<g><path style="opacity:0.937" fill="blue" d="M 254.5,4.5 C 273.192,20.0118 294.526,30.5118 318.5,36C 327.408,37.794 336.408,38.794 345.5,39C 365.833,39.3333 386.167,39.6667 406.5,40C 419.194,116.861 430.028,194.027 439,271.5C 439.667,278.833 439.667,286.167 439,293.5C 434.062,303.116 427.562,311.616 419.5,319C 404.9,330.776 389.9,341.943 374.5,352.5C 393.833,382.167 413.167,411.833 432.5,441.5C 407.589,438.929 382.589,436.096 357.5,433C 347.871,457.763 338.371,482.596 329,507.5C 310.333,473.5 291.667,439.5 273,405.5C 267.316,407.011 261.483,407.678 255.5,407.5C 249.517,407.678 243.684,407.011 238,405.5C 219.333,439.5 200.667,473.5 182,507.5C 172.592,482.359 162.925,457.359 153,432.5C 128.19,436.122 103.356,439.289 78.5,442C 97.6364,412.032 116.97,382.199 136.5,352.5C 121.1,341.943 106.1,330.776 91.5,319C 83.4382,311.616 76.9382,303.116 72,293.5C 71.6098,274.064 72.9431,254.731 76,235.5C 84.4935,170.379 93.8269,105.379 104,40.5C 124.427,39.6728 144.927,39.1728 165.5,39C 199.523,38.1689 229.19,26.6689 254.5,4.5 Z M 254.5,26.5 C 277.078,42.112 302.078,51.612 329.5,55C 350.497,55.5 371.497,55.6666 392.5,55.5C 403.406,127.679 413.24,200.012 422,272.5C 422.667,278.5 422.667,284.5 422,290.5C 416.54,298.294 410.04,305.127 402.5,311C 362.825,339.853 320.825,365.186 276.5,387C 262.5,391.667 248.5,391.667 234.5,387C 190.175,365.186 148.175,339.853 108.5,311C 100.96,305.127 94.46,298.294 89,290.5C 89.3093,267.378 91.3093,244.378 95,221.5C 102.602,166.122 110.435,110.789 118.5,55.5C 139.503,55.6666 160.503,55.5 181.5,55C 208.575,52.1144 232.909,42.6144 254.5,26.5 Z M 254.5,64.5 C 288.92,82.6512 325.587,90.3178 364.5,87.5C 374.547,151.328 383.047,215.328 390,279.5C 367.535,297.623 343.701,313.79 318.5,328C 300.994,337.921 283.327,347.587 265.5,357C 258.833,359 252.167,359 245.5,357C 214.059,340.532 183.392,322.865 153.5,304C 142.219,296.441 131.385,288.274 121,279.5C 127.953,215.325 136.453,151.325 146.5,87.5C 184.933,90.5485 220.933,82.8818 254.5,64.5 Z M 252.5,96.5 C 254.527,96.3379 256.527,96.5045 258.5,97C 281.162,137.154 302.662,177.987 323,219.5C 334.15,259.743 321.983,290.576 286.5,312C 253.223,325.306 224.39,318.806 200,292.5C 182.818,268.342 179.484,242.342 190,214.5C 210.082,174.665 230.915,135.331 252.5,96.5 Z M 247.5,191.5 C 252.833,191.5 258.167,191.5 263.5,191.5C 263.5,202.167 263.5,212.833 263.5,223.5C 274.167,223.5 284.833,223.5 295.5,223.5C 295.5,228.833 295.5,234.167 295.5,239.5C 284.833,239.5 274.167,239.5 263.5,239.5C 263.5,250.167 263.5,260.833 263.5,271.5C 258.167,271.5 252.833,271.5 247.5,271.5C 247.5,260.833 247.5,250.167 247.5,239.5C 236.833,239.5 226.167,239.5 215.5,239.5C 215.5,234.167 215.5,228.833 215.5,223.5C 226.167,223.5 236.833,223.5 247.5,223.5C 247.5,212.833 247.5,202.167 247.5,191.5 Z M 150.5,361.5 C 174.07,374.289 197.736,387.122 221.5,400C 209.206,422.086 197.04,444.253 185,466.5C 178.5,449.5 172,432.5 165.5,415.5C 164.333,415.167 163.167,414.833 162,414.5C 145.839,417.126 129.672,418.793 113.5,419.5C 126.354,400.449 138.687,381.116 150.5,361.5 Z M 357.5,361.5 C 358.675,361.281 359.675,361.614 360.5,362.5C 372.584,381.67 384.918,400.67 397.5,419.5C 381.357,418.63 365.191,416.964 349,414.5C 347.833,414.833 346.667,415.167 345.5,415.5C 339.098,432.539 332.598,449.539 326,466.5C 313.96,444.253 301.794,422.086 289.5,400C 312.716,387.899 335.383,375.065 357.5,361.5 Z"/></g>
<g><path style="opacity:0.936" fill="blue" d="M 254.5,44.5 C 272.065,54.6352 290.731,62.1352 310.5,67C 333.335,70.7845 356.335,72.2845 379.5,71.5C 389.74,138.345 398.906,205.345 407,272.5C 407.667,277.167 407.667,281.833 407,286.5C 397.71,296.129 387.544,304.629 376.5,312C 342.974,334.605 307.974,354.939 271.5,373C 260.833,376.333 250.167,376.333 239.5,373C 195.126,350.905 153.126,325.238 113.5,296C 110.333,292.833 107.167,289.667 104,286.5C 104.426,267.417 106.093,248.417 109,229.5C 116.175,176.776 123.675,124.11 131.5,71.5C 154.665,72.2845 177.665,70.7845 200.5,67C 219.858,62.4994 237.858,54.9994 254.5,44.5 Z M 254.5,64.5 C 220.933,82.8818 184.933,90.5485 146.5,87.5C 136.453,151.325 127.953,215.325 121,279.5C 131.385,288.274 142.219,296.441 153.5,304C 183.392,322.865 214.059,340.532 245.5,357C 252.167,359 258.833,359 265.5,357C 283.327,347.587 300.994,337.921 318.5,328C 343.701,313.79 367.535,297.623 390,279.5C 383.047,215.328 374.547,151.328 364.5,87.5C 325.587,90.3178 288.92,82.6512 254.5,64.5 Z M 252.5,96.5 C 230.915,135.331 210.082,174.665 190,214.5C 179.484,242.342 182.818,268.342 200,292.5C 224.39,318.806 253.223,325.306 286.5,312C 321.983,290.576 334.15,259.743 323,219.5C 302.662,177.987 281.162,137.154 258.5,97C 256.527,96.5045 254.527,96.3379 252.5,96.5 Z M 247.5,191.5 C 247.5,202.167 247.5,212.833 247.5,223.5C 236.833,223.5 226.167,223.5 215.5,223.5C 215.5,228.833 215.5,234.167 215.5,239.5C 226.167,239.5 236.833,239.5 247.5,239.5C 247.5,250.167 247.5,260.833 247.5,271.5C 252.833,271.5 258.167,271.5 263.5,271.5C 263.5,260.833 263.5,250.167 263.5,239.5C 274.167,239.5 284.833,239.5 295.5,239.5C 295.5,234.167 295.5,228.833 295.5,223.5C 284.833,223.5 274.167,223.5 263.5,223.5C 263.5,212.833 263.5,202.167 263.5,191.5C 258.167,191.5 252.833,191.5 247.5,191.5 Z"/></g>
<g><path style="opacity:0.929" fill="blue" d="M 248.5,79.5 C 259.145,77.4366 267.978,80.4366 275,88.5C 294.745,126.991 314.745,165.324 335,203.5C 343.543,223.755 345.877,244.755 342,266.5C 331.969,304.865 307.469,327.698 268.5,335C 229.864,338.929 200.031,324.762 179,292.5C 168.131,272.814 164.464,251.814 168,229.5C 169.198,223.042 170.864,216.709 173,210.5C 193.985,169.865 214.985,129.198 236,88.5C 239.651,84.609 243.818,81.609 248.5,79.5 Z M 252.5,96.5 C 230.915,135.331 210.082,174.665 190,214.5C 179.484,242.342 182.818,268.342 200,292.5C 224.39,318.806 253.223,325.306 286.5,312C 321.983,290.576 334.15,259.743 323,219.5C 302.662,177.987 281.162,137.154 258.5,97C 256.527,96.5045 254.527,96.3379 252.5,96.5 Z M 247.5,191.5 C 247.5,202.167 247.5,212.833 247.5,223.5C 236.833,223.5 226.167,223.5 215.5,223.5C 215.5,228.833 215.5,234.167 215.5,239.5C 226.167,239.5 236.833,239.5 247.5,239.5C 247.5,250.167 247.5,260.833 247.5,271.5C 252.833,271.5 258.167,271.5 263.5,271.5C 263.5,260.833 263.5,250.167 263.5,239.5C 274.167,239.5 284.833,239.5 295.5,239.5C 295.5,234.167 295.5,228.833 295.5,223.5C 284.833,223.5 274.167,223.5 263.5,223.5C 263.5,212.833 263.5,202.167 263.5,191.5C 258.167,191.5 252.833,191.5 247.5,191.5 Z"/></g>
<g><path style="opacity:1" fill="blue" d="M 231.5,175.5 C 247.5,175.5 263.5,175.5 279.5,175.5C 279.5,186.167 279.5,196.833 279.5,207.5C 290.167,207.5 300.833,207.5 311.5,207.5C 311.5,223.5 311.5,239.5 311.5,255.5C 300.833,255.5 290.167,255.5 279.5,255.5C 279.5,266.167 279.5,276.833 279.5,287.5C 263.5,287.5 247.5,287.5 231.5,287.5C 231.5,276.833 231.5,266.167 231.5,255.5C 220.833,255.5 210.167,255.5 199.5,255.5C 199.5,239.5 199.5,223.5 199.5,207.5C 210.167,207.5 220.833,207.5 231.5,207.5C 231.5,196.833 231.5,186.167 231.5,175.5 Z M 247.5,191.5 C 247.5,202.167 247.5,212.833 247.5,223.5C 236.833,223.5 226.167,223.5 215.5,223.5C 215.5,228.833 215.5,234.167 215.5,239.5C 226.167,239.5 236.833,239.5 247.5,239.5C 247.5,250.167 247.5,260.833 247.5,271.5C 252.833,271.5 258.167,271.5 263.5,271.5C 263.5,260.833 263.5,250.167 263.5,239.5C 274.167,239.5 284.833,239.5 295.5,239.5C 295.5,234.167 295.5,228.833 295.5,223.5C 284.833,223.5 274.167,223.5 263.5,223.5C 263.5,212.833 263.5,202.167 263.5,191.5C 258.167,191.5 252.833,191.5 247.5,191.5 Z"/></g>
</svg>
